# xmcd
#
# Track frame offsets:
#	150
#	12436
#	24786
#	41273
#	52431
#	64643
#	76107
#	93063
#	111419
#	121778
#	139671
#	148244
#	159475
#	170293
#
# Disc length: 2382 seconds
#
# Revision: 1
# Processed by: cddbd v1.5.2PL0 Copyright (c) Steve Scherf et al.
# Submitted via: audiograbber 1.83.01
#
DISCID=ae094c0e
DTITLE=The Bluegrass Brothers - Appalachian Memories
DYEAR=2007
DGENRE=Bluegrass
TTITLE0=If I Ever Ge6t Back To Ole Kentucky
TTITLE1=West Texas Wind
TTITLE2=Momma's Flowers
TTITLE3=Appalachain Hills
TTITLE4=Devilish Plan
TTITLE5=Where Will You Be
TTITLE6=You Won't Ever Forget Me
TTITLE7=Appalachain Memories
TTITLE8=I Hear A Choo Choo  Coming
TTITLE9=Just Like You
TTITLE10=Mountain Folks
TTITLE11=It's A Short Trip To Heaven
TTITLE12=Blue And Sorrow
TTITLE13=Roanoke
EXTD=
EXTT0=
EXTT1=
EXTT2=
EXTT3=
EXTT4=
EXTT5=
EXTT6=
EXTT7=
EXTT8=
EXTT9=
EXTT10=
EXTT11=
EXTT12=
EXTT13=
PLAYORDER=
